{"title":"The Wrath.Of.Cain.2010.DVDRiP.XViD.MULTISUB-Zen_Bud","uid":5987192,"size":741735731,"categoryP":"video","categoryS":"movies","magnet":"?xt=urn:btih:45e201a0b6982811e157fa0914baa09dcf23e584&amp;dn=The+Wrath.Of.Cain.2010.DVDRiP.XViD.MULTISUB-Zen_Bud&amp;tr=udp%3A%2F%2Ftracker.openbittorrent.com%3A80&amp;tr=udp%3A%2F%2Fopen.demonii.com%3A1337&amp;tr=udp%3A%2F%2Ftracker.coppersurfer.tk%3A6969&amp;tr=udp%3A%2F%2Fexodus.desync.com%3A6969","seeders":2,"leechers":0,"uploader":"Zen_Bud","files":-1,"time":1290729630,"description":"***** Wrath.Of.Cain.2010.DVDRiP.XViD.MULTISUB-Zen_Bud ******\n\nFormat                           : AVI\nFormat profile                   : OpenDML\nFile size                        : 700 MiB\nDuration                         : 1h 20mn\nOverall bit rate                 : 1 214 Kbps\nWriting application              : AVI-Mux GUI 1.17.8.3\n\nVideo\n\nFormat                           : MPEG-4 Visual\nCodec ID/Hint                    : XviD\nDuration                         : 1h 20mn\nBit rate                         : 1 082 Kbps\nWidth                            : 720 pixels\nHeight                           : 576 pixels\nDisplay aspect ratio             : 16:9\nStream size                      : 624 MiB (89%)\nWriting library                  : XviD 1.1.2 (UTC 2006-11-01)\n\nAudio\n\nFormat                           : MPEG Audio\nCodec ID/Hint                    : MP3\nDuration                         : 1h 20mn\nBit rate                         : 128 Kbps\nChannel(s)                       : 2 channels\nSampling rate                    : 48.0 KHz\nStream size                      : 73.8 MiB (11%)\nLanguage                         : English\n\nText #1\nLanguage                         : Norwegian\n\nText #2\nLanguage                         : Swedish\n\nText #3\nLanguage                         : Finnish\n\nText #4\nLanguage                         : Icelandic\n\n\n","torrent":{"xt":"urn:btih:45e201a0b6982811e157fa0914baa09dcf23e584","amp;dn":"The+Wrath.Of.Cain.2010.DVDRiP.XViD.MULTISUB-Zen_Bud","amp;tr":["udp%3A%2F%2Ftracker.openbittorrent.com%3A80","udp%3A%2F%2Fopen.demonii.com%3A1337","udp%3A%2F%2Ftracker.coppersurfer.tk%3A6969","udp%3A%2F%2Fexodus.desync.com%3A6969"],"infoHash":"45e201a0b6982811e157fa0914baa09dcf23e584","infoHashBuffer":{"type":"Buffer","data":[69,226,1,160,182,152,40,17,225,87,250,9,20,186,160,157,207,35,229,132]},"announce":[],"urlList":[]}}